<svg width="162" height="32" viewBox="0 0 162 32" fill="none" xmlns="http://www.w3.org/2000/svg">
<path fill-rule="evenodd" clip-rule="evenodd" d="M1.71997 11.4102C11.6979 7.82506 21.6758 4.28312 31.6538 0.69797C34.9366 -0.511477 37.3987 1.30269 36.4484 4.75825L28.7166 29.5087C28.155 31.8844 25.7361 32.446 23.5332 30.5022L20.5096 28.2129L14.8943 23.9798L10.0133 27.349C10.0133 27.349 8.02638 28.2993 8.02638 26.0964V18.3645L26.3841 9.63924L15.1103 19.5308L24.8722 26.7011L32.0857 4.23992L5.39151 13.354L9.4086 15.4273L5.56428 17.2415L1.07205 14.8226C-0.785311 13.7859 -0.0078094 12.0581 1.71997 11.4102Z" fill="#4C70F0"/>
<path fill-rule="evenodd" clip-rule="evenodd" d="M14.8502 23.9798L12.6905 25.4916L9.88281 20.1787L14.8502 23.9798Z" fill="#2B3C89"/>
<path fill-rule="evenodd" clip-rule="evenodd" d="M76.046 18.5844C76.046 18.8119 76.046 19.0849 76.0005 19.4489H66.0812C66.2632 20.359 66.7182 21.1325 67.4462 21.6785C68.1743 22.2245 69.0843 22.4975 70.1763 22.4975C71.5869 22.4975 72.7244 22.0425 73.5889 21.1325L75.1815 22.9525C74.6354 23.635 73.9074 24.1356 73.0429 24.4996C72.1784 24.8636 71.1773 25.0001 70.0853 25.0001C68.6748 25.0001 67.4917 24.7271 66.3997 24.1811C65.3532 23.635 64.5342 22.8615 63.9426 21.8605C63.3511 20.8595 63.0781 19.7674 63.0781 18.4934C63.0781 17.2649 63.3511 16.1728 63.8971 15.1718C64.4432 14.1708 65.2167 13.3973 66.2177 12.8512C67.2187 12.3052 68.3563 12.0322 69.5848 12.0322C70.8133 12.0322 71.9054 12.3052 72.9064 12.8512C73.8619 13.3973 74.6354 14.1708 75.1815 15.1263C75.773 16.1728 76.046 17.3104 76.046 18.5844ZM69.6758 14.4438C68.7203 14.4438 67.9467 14.7168 67.2642 15.2628C66.6272 15.8088 66.2177 16.5823 66.0812 17.4924H73.2704C73.1339 16.5823 72.7699 15.8543 72.0874 15.2628C71.4503 14.7168 70.6313 14.4438 69.6758 14.4438Z" fill="#22283B"/>
<path fill-rule="evenodd" clip-rule="evenodd" d="M97.296 18.5844C97.296 18.8119 97.296 19.0849 97.2505 19.4489H87.3312C87.5132 20.359 87.9682 21.1325 88.6962 21.6785C89.4243 22.2245 90.3343 22.4975 91.4263 22.4975C92.8369 22.4975 93.9744 22.0425 94.8389 21.1325L96.4315 22.9525C95.8854 23.635 95.1574 24.1356 94.2929 24.4996C93.4284 24.8636 92.4274 25.0001 91.3353 25.0001C89.9248 25.0001 88.7418 24.7271 87.6497 24.1811C86.6032 23.635 85.7842 22.8615 85.1927 21.8605C84.6011 20.8595 84.3281 19.7674 84.3281 18.4934C84.3281 17.2649 84.6011 16.1728 85.1472 15.1718C85.6932 14.1708 86.4667 13.3973 87.4677 12.8512C88.4687 12.3052 89.5608 12.0322 90.8348 12.0322C92.0633 12.0322 93.1554 12.3052 94.1564 12.8512C95.1119 13.3973 95.8854 14.1708 96.4315 15.1263C97.023 16.1728 97.296 17.3104 97.296 18.5844ZM90.9258 14.4438C89.9703 14.4438 89.1968 14.7168 88.5142 15.2628C87.8772 15.8088 87.4677 16.5823 87.3312 17.4924H94.5204C94.3839 16.5823 94.0199 15.8543 93.3829 15.2628C92.7004 14.7168 91.8813 14.4438 90.9258 14.4438Z" fill="#22283B"/>
<path fill-rule="evenodd" clip-rule="evenodd" d="M101.571 14.0782C102.436 12.7587 103.937 12.0762 106.076 12.0762V14.8062C105.803 14.8062 105.575 14.8062 105.393 14.8062C104.256 14.8062 103.346 15.1248 102.709 15.8073C102.072 16.4898 101.753 17.4453 101.753 18.7193V24.862H98.75V12.2127H101.571V14.0782Z" fill="#22283B"/>
<path fill-rule="evenodd" clip-rule="evenodd" d="M118.087 10.3034C117.541 10.3034 117.086 10.1214 116.722 9.75735C116.358 9.39334 116.176 8.93833 116.176 8.43782C116.176 7.8918 116.358 7.48229 116.722 7.11828C117.086 6.75427 117.541 6.57227 118.087 6.57227C118.633 6.57227 119.088 6.75427 119.452 7.07278C119.816 7.39129 119.998 7.8463 119.998 8.34682C119.998 8.89283 119.816 9.34784 119.452 9.71185C119.088 10.1214 118.633 10.3034 118.087 10.3034Z" fill="#22283B"/>
<path fill-rule="evenodd" clip-rule="evenodd" d="M116.59 12.2129H119.547V24.8622H116.59V12.2129Z" fill="#22283B"/>
<path fill-rule="evenodd" clip-rule="evenodd" d="M145.253 18.5844C145.253 18.8119 145.253 19.0849 145.207 19.4489H135.288C135.47 20.359 135.925 21.1325 136.653 21.6785C137.381 22.2245 138.291 22.4975 139.383 22.4975C140.794 22.4975 141.931 22.0425 142.796 21.1325L144.388 22.9525C143.842 23.635 143.114 24.1356 142.25 24.4996C141.385 24.8636 140.384 25.0001 139.292 25.0001C137.882 25.0001 136.699 24.7271 135.607 24.1811C134.56 23.635 133.741 22.8615 133.15 21.8605C132.558 20.8595 132.285 19.7674 132.285 18.4934C132.285 17.2649 132.558 16.1728 133.104 15.1718C133.65 14.1708 134.424 13.3973 135.425 12.8512C136.426 12.3052 137.518 12.0322 138.792 12.0322C140.02 12.0322 141.112 12.3052 142.113 12.8512C143.069 13.3973 143.842 14.1708 144.388 15.1263C144.98 16.1728 145.253 17.3104 145.253 18.5844ZM138.837 14.4438C137.882 14.4438 137.108 14.7168 136.426 15.2628C135.789 15.8088 135.379 16.5823 135.243 17.4924H142.432C142.295 16.5823 141.931 15.8543 141.294 15.2628C140.612 14.7168 139.793 14.4438 138.837 14.4438Z" fill="#22283B"/>
<path fill-rule="evenodd" clip-rule="evenodd" d="M149.666 14.0782C150.531 12.7587 152.032 12.0762 154.171 12.0762V14.8972C153.898 14.8517 153.67 14.8062 153.488 14.8062C152.351 14.8062 151.441 15.1248 150.804 15.8073C150.167 16.4898 149.848 17.4453 149.848 18.7193V24.862H146.891V12.2127H149.712V14.0782H149.666Z" fill="#22283B"/>
<path fill-rule="evenodd" clip-rule="evenodd" d="M85.1478 9.52973C85.1023 9.52973 82.1902 9.52973 82.0992 9.52973C81.0072 9.62073 80.4157 10.2577 80.4157 11.5773V12.3508H83.8283V14.7169H80.5522V24.9091H77.5946V20.4045V14.6714V12.3053V11.9868V11.5318C77.5946 10.1668 78.0041 9.12022 78.7776 8.3012C79.5512 7.52768 80.6887 7.11816 82.0992 7.11816C82.1447 7.11816 85.1023 7.11816 85.1478 7.11816V9.52973Z" fill="#22283B"/>
<path fill-rule="evenodd" clip-rule="evenodd" d="M58.3007 19.5402C58.5282 19.4492 58.7557 19.4492 58.9377 19.3582C59.9843 18.9032 60.8033 18.2206 61.3948 17.3106C61.9408 16.4006 62.2593 15.3541 62.2593 14.171C62.2593 12.9425 61.9863 11.896 61.3948 11.0314C60.8033 10.1669 60.0298 9.4844 58.9377 8.98388C57.8912 8.52887 56.6172 8.25586 55.1611 8.25586H48.3359V24.8183H51.43V10.8494H55.0246C56.3897 10.8494 57.3907 11.1224 58.0732 11.714C58.7557 12.26 59.1197 13.079 59.1197 14.171C59.1197 15.2175 58.7557 16.0366 58.0732 16.6281C57.3907 17.1741 56.3442 17.4926 55.0246 17.4926H52.9316L58.9377 24.8638H62.6233L58.3007 19.5402Z" fill="#22283B"/>
<path fill-rule="evenodd" clip-rule="evenodd" d="M110.49 14.0782C111.355 12.7587 112.856 12.0762 114.995 12.0762V14.8062C114.722 14.8062 114.495 14.8062 114.313 14.8062C113.175 14.8062 112.265 15.1248 111.628 15.8073C110.991 16.4898 110.672 17.4453 110.672 18.7193V24.862H107.715V12.2127H110.536V14.0782H110.49Z" fill="#22283B"/>
<path fill-rule="evenodd" clip-rule="evenodd" d="M155.311 7.61868H154.219V7.11816H156.995V7.61868H155.903V10.3943H155.311V7.61868Z" fill="#22283B"/>
<path fill-rule="evenodd" clip-rule="evenodd" d="M160.726 10.3943L160.68 8.2102L159.634 10.0302H159.361L158.269 8.25569V10.3943H157.723V7.11816H158.223L159.497 9.30222L160.771 7.11816H161.272V10.3943H160.726Z" fill="#22283B"/>
<path fill-rule="evenodd" clip-rule="evenodd" d="M132.057 22.5001V24.8661H121.137V23.0006L128.098 14.5829H121.273V12.2168H131.875V14.0823L124.913 22.5001H132.057Z" fill="#22283B"/>
</svg>
